<svg width="129" height="129" viewBox="0 0 129 129" fill="none" xmlns="http://www.w3.org/2000/svg">
<g clip-path="url(#clip0_704_2873)">
<rect width="128.444" height="128.444" rx="64.222" fill="white"/>
<path fill-rule="evenodd" clip-rule="evenodd" d="M64.222 128.444C28.7532 128.444 0 99.6908 0 64.222C0 28.7532 28.7532 0 64.222 0C99.6908 0 128.444 28.7532 128.444 64.222C128.444 99.6908 99.6908 128.444 64.222 128.444ZM70.7094 77.7518C67.1266 74.169 61.3176 74.1689 57.7346 77.7518C54.1517 81.3347 54.1517 87.1437 57.7346 90.7266C61.3175 94.3095 67.1264 94.3096 70.7093 90.7266C74.2923 87.1437 74.2923 81.3347 70.7094 77.7518ZM92.078 65.9306C76.259 51.7336 52.2019 51.7184 36.3661 65.9305C35.4313 66.7693 35.4007 68.225 36.2887 69.1131L40.9551 73.7795C41.772 74.5964 43.087 74.6514 43.9552 73.8892C55.5185 63.7401 72.9008 63.7186 84.4887 73.8893C85.3569 74.6514 86.672 74.5964 87.4888 73.7796L92.1552 69.1132C93.0434 68.2251 93.0127 66.7694 92.078 65.9306ZM105.954 51.816C82.9959 30.4494 47.2282 30.3451 24.1583 51.8161C23.2716 52.6413 23.2548 54.0411 24.1111 54.8974L28.6672 59.4535C29.4847 60.271 30.7979 60.2885 31.6483 59.5052C50.5119 42.1276 79.6032 42.1303 98.4638 59.5051C99.3141 60.2885 100.627 60.271 101.445 59.4534L106.001 54.8973C106.857 54.041 106.84 52.6412 105.954 51.816Z" fill="#4268CF"/>
</g>
<defs>
<clipPath id="clip0_704_2873">
<rect width="128.444" height="128.444" rx="64.222" fill="white"/>
</clipPath>
</defs>
</svg>
