<?xml version="1.0" encoding="UTF-8"?>
<svg width="77px" height="77px" viewBox="0 0 77 77" version="1.1" xmlns="http://www.w3.org/2000/svg" xmlns:xlink="http://www.w3.org/1999/xlink">
    <!-- Generator: Sketch 52.6 (67491) - http://www.bohemiancoding.com/sketch -->
    <title>Combined Shape</title>
    <desc>Created with Sketch.</desc>
    <g id="Product-Page" stroke="none" stroke-width="1" fill="none" fill-rule="evenodd">
        <g id="WordPress-plugins" transform="translate(-196.000000, -957.000000)" fill="#4268CF">
            <path d="M234.5,1034 C213.237037,1034 196,1016.76296 196,995.5 C196,974.237037 213.237037,957 234.5,957 C255.762963,957 273,974.237037 273,995.5 C273,1016.76296 255.762963,1034 234.5,1034 Z M238.389087,1003.61091 C236.241256,1001.46308 232.758851,1001.46297 230.610943,1003.61088 C228.463035,1005.75879 228.463021,1009.2412 230.610913,1011.38909 C232.758804,1013.53698 236.241149,1013.53703 238.389057,1011.38912 C240.536965,1009.24121 240.536979,1005.7588 238.389087,1003.61091 Z M251.199196,996.524269 C241.71601,988.013409 227.294143,988.004307 217.800859,996.524214 C217.240496,997.027079 217.222108,997.899777 217.75448,998.43215 L220.551879,1001.22955 C221.041594,1001.71926 221.829967,1001.75226 222.350408,1001.29537 C229.282401,995.21117 239.70281,995.198209 246.649546,1001.29541 C247.170047,1001.75225 247.95842,1001.71925 248.448075,1001.22959 L251.245465,998.432205 C251.777952,997.899834 251.759561,997.027136 251.199196,996.524269 Z M259.517481,988.062818 C245.754662,975.25391 224.312531,975.191374 210.482464,988.062873 C209.95096,988.557557 209.940845,989.396689 210.454222,989.910066 L213.185489,992.641333 C213.675569,993.131413 214.462824,993.141924 214.972622,992.672355 C226.281029,982.254786 243.720804,982.256415 255.027427,992.672311 C255.537167,993.141935 256.324422,993.131423 256.81456,992.641284 L259.545833,989.910011 C260.059097,989.396633 260.048984,988.557501 259.517481,988.062818 Z" id="Combined-Shape"></path>
        </g>
    </g>
</svg>