<?xml version="1.0" encoding="utf-8"?>
<!-- Generator: Adobe Illustrator 15.0.0, SVG Export Plug-In . SVG Version: 6.00 Build 0)  -->
<!DOCTYPE svg PUBLIC "-//W3C//DTD SVG 1.1//EN" "http://www.w3.org/Graphics/SVG/1.1/DTD/svg11.dtd">
<svg version="1.1" id="Calque_1" xmlns="http://www.w3.org/2000/svg" xmlns:xlink="http://www.w3.org/1999/xlink" x="0px" y="0px"
	 width="850.39px" height="850.39px" viewBox="0 0 850.39 850.39" enable-background="new 0 0 850.39 850.39" xml:space="preserve">
<path fill="#DB3939" d="M425.195,2C190.366,2,0,191.918,0,426.195C0,660.472,190.366,850.39,425.195,850.39
	c234.828,0,425.195-189.918,425.195-424.195C850.39,191.918,660.023,2,425.195,2z M378.648,670.664L378.648,670.664h-91.578v-57.115
	l-49.567-49.451H180.24v-91.236h95.248l103.161,102.797V670.664z M531.175,670.664h-91.576V537.367L313.852,411.931H180.24v-91.362
	h171.472l179.463,179.024V670.664z M683.718,670.664h-91.574V461.21L390.063,259.73H180.24v-91.361h247.806l255.672,255.072V670.664
	z"/>
</svg>
